PathFileType	4	(X/Y/Z)	D:\Share\Shared_Data\Ergonomics\Sit To Stand Pertubation\S2\Perturbed.trc
DataRate	CameraRate	NumFrames	NumMarkers	Units	OrigDataRate	OrigDataStartFrame	OrigNumFrames	
100	100	11	18	m	100	11656	261
Frame#	Time	R_Toe			R_ASIS			R_Pelvis			V_Sacral			L_Pelvis			L_ASIS			Clavical			R_Acromium			L_Acromium			Sternum			Torso			R_Thigh_Med			R_Thigh_Lat			R_Thigh			R_Shank_Med			R_Shank_Lat			R_Shank			R_Heel			
		X1	Y1	Z1	X2	Y2	Z2	X3	Y3	Z3	X4	Y4	Z4	X5	Y5	Z5	X6	Y6	Z6	X7	Y7	Z7	X8	Y8	Z8	X9	Y9	Z9	X10	Y10	Z10	X11	Y11	Z11	X12	Y12	Z12	X13	Y13	Z13	X14	Y14	Z14	X15	Y15	Z15	X16	Y16	Z16	X17	Y17	Z17	X18	Y18	Z18	

11656	116.55	0.43443109	0.065540749	0.14784804	0.41392624	1.0247463	0.13958641	0.33927942	1.0262574	0.18695314	0.19102025	1.0242611	0.0275369	0.28336258	1.0262612	-0.15619278	0.38051877	1.0359036	-0.13613019	0.39345145	1.4539987	0.0033108599	0.29910913	1.4733406	0.21350259	0.27375729	1.484015	-0.17508116	0.44337573	1.2959585	-0.0045263548	0.39725595	1.4156787	-0.11298547	0.32183081	0.49528949	0.092640503	0.31342145	0.52039172	0.18080939	0.40728082	0.67525739	0.15979686	0.29933923	0.10647066	0.1066285	0.2774278	0.099482277	0.19808176	0.28506329	0.3738912	0.21484558	0.19756404	0.060363308	0.14870235
11657	116.56	0.43446109	0.065499847	0.14785425	0.41458673	1.0246421	0.13976668	0.33995193	1.026168	0.18713741	0.19168849	1.0242271	0.027666641	0.28406842	1.0261799	-0.15597757	0.38120987	1.0357864	-0.1359632	0.39417188	1.4538896	0.0033787117	0.29989859	1.4733888	0.21356705	0.27443054	1.4839143	-0.17498193	0.44405035	1.2958414	-0.0044140267	0.39792007	1.4155347	-0.11290535	0.32197382	0.49516553	0.092644783	0.31357047	0.52028229	0.18086461	0.40763693	0.67511713	0.15990443	0.29939377	0.10645643	0.10657585	0.27745551	0.099496208	0.19801085	0.28517639	0.37387927	0.21488409	0.19757251	0.060482071	0.14872142
11658	116.57	0.43448868	0.065459892	0.14786139	0.4152511	1.0245278	0.13994887	0.34060889	1.026067	0.18732367	0.19236584	1.0241829	0.0277871	0.28479977	1.0260909	-0.15576093	0.38192184	1.0356486	-0.13579517	0.39486938	1.4537738	0.003454653	0.30063654	1.4733971	0.21363504	0.27507516	1.4837882	-0.17488101	0.44471631	1.2957218	-0.0042938051	0.3985686	1.4153833	-0.1128192	0.32206995	0.4950419	0.092659409	0.31368939	0.52016882	0.18092609	0.4079689	0.67496686	0.16000291	0.29944809	0.10644283	0.10652724	0.27748093	0.099506599	0.19794974	0.28526263	0.37386575	0.21493227	0.19758339	0.060581902	0.14873878
11659	116.58	0.4345141	0.065421234	0.14786827	0.4159183	1.0244065	0.14013095	0.3412594	1.0259606	0.18750981	0.19304886	1.0241337	0.027903492	0.28554425	1.0260004	-0.15556299	0.38264694	1.0354949	-0.13562686	0.39554318	1.4536553	0.0035371678	0.30132278	1.4733724	0.2137068	0.27569257	1.483642	-0.17478149	0.4453728	1.2956013	-0.0041674938	0.39920248	1.4152296	-0.11272733	0.32212866	0.49492252	0.09268383	0.31378305	0.52005463	0.18099377	0.40828214	0.67481128	0.16008899	0.29949976	0.10642961	0.10648266	0.27750412	0.099514832	0.19789745	0.28532605	0.37385159	0.21499074	0.19759695	0.06066246	0.14875284
11660	116.59	0.43453741	0.065384247	0.14787373	0.41658591	1.024282	0.14031081	0.34190869	1.0258541	0.18769365	0.19373338	1.0240835	0.028020082	0.28629086	1.0259104	-0.15539191	0.38337744	1.0353318	-0.13545833	0.39619257	1.4535377	0.0036254807	0.30195908	1.4733226	0.21378229	0.27628525	1.4834814	-0.1746861	0.44601816	1.2954823	-0.0040364265	0.39982297	1.4150771	-0.11262971	0.32216064	0.4948089	0.092715363	0.31385724	0.5199422	0.1810672	0.40858273	0.67465411	0.16016151	0.29954681	0.10641668	0.10644228	0.27752521	0.099522049	0.19785271	0.28537186	0.37383792	0.21505943	0.19761324	0.060724758	0.14876239
11661	116.6	0.43455841	0.065349426	0.14787634	0.41724969	1.0241572	0.14048608	0.34255853	1.0257512	0.18787317	0.19441452	1.0240364	0.028139599	0.28703198	1.0258199	-0.15523965	0.38410577	1.0351663	-0.13528917	0.39681689	1.453425	0.0037193494	0.30254849	1.473256	0.21386067	0.27685706	1.483312	-0.17459625	0.44664984	1.2953667	-0.0039015367	0.40043118	1.4149298	-0.11252644	0.32217572	0.49470023	0.092750038	0.31391904	0.51983319	0.18114511	0.40887662	0.67449707	0.16022141	0.29958813	0.10640397	0.10640617	0.27754449	0.099528992	0.19781406	0.28540613	0.37382504	0.21513724	0.19763184	0.060771191	0.14876711
11662	116.61	0.434577	0.065317062	0.1478746	0.41790424	1.0240344	0.14065466	0.34320746	1.0256544	0.18804688	0.19508711	1.0239954	0.028263367	0.28776163	1.0257288	-0.15509132	0.38482422	1.035006	-0.13511934	0.39741611	1.4533202	0.0038182104	0.30309576	1.4731815	0.21394084	0.27741235	1.4831405	-0.17451183	0.44726498	1.2952572	-0.0037635038	0.40102765	1.414791	-0.11241814	0.32218225	0.49459427	0.092784416	0.31397659	0.51972882	0.18122571	0.40916821	0.67434094	0.1602708	0.2996236	0.10639159	0.10637424	0.27756235	0.099536072	0.19778023	0.28543521	0.37381284	0.21522197	0.19765184	0.060805172	0.14876724
11663	116.62	0.43459335	0.06528714	0.14786766	0.41854437	1.023915	0.14081519	0.34385098	1.0255642	0.18821437	0.19574594	1.0239627	0.028391552	0.2884744	1.0256381	-0.15493399	0.38552515	1.0348564	-0.13495	0.39799094	1.4532245	0.0039208179	0.3036062	1.4731075	0.21402153	0.27795596	1.4829731	-0.17443221	0.44786096	1.295156	-0.0036228747	0.40161249	1.4146632	-0.11230614	0.32218741	0.4944895	0.092816666	0.31403784	0.51963025	0.18130672	0.40945993	0.67418726	0.1603121	0.29965408	0.1063798	0.1063462	0.27757953	0.099543503	0.19775011	0.28546518	0.3738009	0.21531044	0.19767226	0.060830406	0.14876343
11664	116.63	0.43460806	0.065259438	0.14785574	0.41916599	1.0238015	0.14096724	0.34448206	1.0254806	0.18837561	0.19638641	1.0239394	0.028523085	0.28916446	1.0255516	-0.15476042	0.38620169	1.034722	-0.1347836	0.39854227	1.4531383	0.0040257211	0.30408533	1.4730428	0.2141019	0.27849234	1.4828154	-0.17435701	0.44843567	1.2950643	-0.003479733	0.40218573	1.4145485	-0.11219198	0.32219791	0.49438654	0.092846199	0.31410956	0.51953931	0.18138606	0.40975208	0.67403827	0.16034712	0.29968127	0.10636898	0.10632159	0.27759705	0.099551537	0.19772282	0.28550113	0.373789	0.21539891	0.19769252	0.060850243	0.14875635
11665	116.64	0.4346221	0.065233612	0.14784018	0.41976559	1.0236962	0.14111079	0.34509283	1.0254045	0.18852962	0.19700447	1.0239259	0.028655684	0.28982599	1.0254733	-0.15457117	0.3868483	1.0346047	-0.1346232	0.39907083	1.4530608	0.0041318922	0.30453781	1.4729943	0.21418149	0.27902573	1.4826721	-0.17428554	0.44898651	1.2949832	-0.0033334503	0.40274805	1.4144478	-0.11207619	0.32222028	0.49428833	0.092872978	0.31419669	0.51945819	0.18146191	0.41004324	0.67389832	0.16037651	0.29970712	0.10635963	0.10629976	0.27761588	0.099560509	0.19769743	0.28554642	0.37377747	0.21548312	0.1977123	0.060867264	0.14874669
11666	116.65	0.43463629	0.065209511	0.14782256	0.42034009	1.0236017	0.14124536	0.34567523	1.0253374	0.18867451	0.19759656	1.0239221	0.028786215	0.29045343	1.025407	-0.15437473	0.38746161	1.0345055	-0.13447168	0.39957764	1.4529902	0.0042388887	0.30496866	1.4729669	0.21426009	0.27956015	1.482547	-0.17421666	0.44950995	1.294912	-0.0031829052	0.40330032	1.4143611	-0.11195805	0.32226111	0.49419962	0.092896965	0.31430206	0.51938904	0.18153291	0.41033145	0.67377191	0.16040013	0.29973328	0.10635249	0.10627998	0.27763657	0.099571022	0.19767282	0.28560339	0.37376736	0.21555896	0.19773152	0.060883305	0.1487352
